# xmcd CD database file
#
# Track frame offsets:
#	150
#	13082
#	25730
#	37778
#	62557
#	73290
#	91444
#	107352
#	123178
#	135036
#	153145
#	164361
#	177869
#	187986
#	214133
#	239719
#	253453
#	265582
#	281564
#	304672
#	321361
#	346858
#
# Disc length: 4787 seconds
#
# Revision: 1
# Processed by: cddbd v1.5.2PL0 Copyright (c) Steve Scherf et al.
# Submitted via: CDex 1.51
#
DISCID=2c12b116
DTITLE=Various Artist - ZM-TPMH-Disc-3
DYEAR=1900
DGENRE=Blues
TTITLE0=Roy Orbison - Crying
TTITLE1=Elvis Presley - Crying In The Chapel
TTITLE2=Cliff Richard - D In Love
TTITLE3=Rod Stewart - Da Ya Think I'm Sexy
TTITLE4=Cliff Richard - Dancing Shoes
TTITLE5=Elton John - Daniel
TTITLE6=Tom Jones - Delilah
TTITLE7=Neil Diamond - Desiree
TTITLE8=Elvis Presley - Devil In Disguise
TTITLE9=Cliff Richard - Devil Woman
TTITLE10=Cliff Richard - Do You Wanna Dance
TTITLE11=Elvis Presley - Don't
TTITLE12=Elvis Presley - Don't Be Cruel
TTITLE13=Elton John and George Michael - Don't Let The Sun Go Down On Me
TTITLE14=Michael Jackson - Don't Stop Til You Get Enough
TTITLE15=Cliff Richard - Don't Talk To Him
TTITLE16=Roy Orbison - Dream Baby
TTITLE17=Neil Diamond - Dry Your Eyes
TTITLE18=Phil Collins and Phillip Bailey - Easy Lover
TTITLE19=Barry Manilow - Even Now
TTITLE20=Rod Stewart - Every Beat Of My Heart
TTITLE21=Cliff Richard - Fall In Love With You
EXTD=
EXTT0=
EXTT1=
EXTT2=
EXTT3=
EXTT4=
EXTT5=
EXTT6=
EXTT7=
EXTT8=
EXTT9=
EXTT10=
EXTT11=
EXTT12=
EXTT13=
EXTT14=
EXTT15=
EXTT16=
EXTT17=
EXTT18=
EXTT19=
EXTT20=
EXTT21=
PLAYORDER=
